<svg width="64" height="64" viewBox="0 0 128 128"
  xmlns="http://www.w3.org/2000/svg">
  <circle cx="64" cy="64" r="60" fill="#000000" fill-opacity="0.3" stroke="#ffffff" stroke-width="4" stroke-opacity="0.5"/>

  <g transform="translate(64, 64)">
    <path d="M-44 -28 L44 -28 L44 32 L-44 32 Z" fill="#000000" fill-opacity="0.2"/>

    <path d="M-40 -25 L-2 -25 L-2 25 L-40 25 Z" fill="#ffffff"/>

    <path d="M2 -25 L40 -25 L40 25 L2 25 Z" fill="#ffffff"/>

    <rect x="-2" y="-28" width="4" height="60" fill="#ffffff" opacity="0.8"/>

    <rect x="-35" y="-15" width="25" height="3" rx="1" fill="#000000" fill-opacity="0.3"/>
    <rect x="-35" y="-5" width="25" height="3" rx="1" fill="#000000" fill-opacity="0.3"/>
    <rect x="-35" y="5" width="15" height="3" rx="1" fill="#000000" fill-opacity="0.3"/>

    <rect x="10" y="-15" width="25" height="3" rx="1" fill="#000000" fill-opacity="0.3"/>
    <rect x="10" y="-5" width="25" height="3" rx="1" fill="#000000" fill-opacity="0.3"/>
    <rect x="10" y="5" width="15" height="3" rx="1" fill="#000000" fill-opacity="0.3"/>
  </g>
</svg>